<?xml version="1.0" encoding="UTF-8"?>
<svg id="timer" xmlns="http://www.w3.org/2000/svg" width="500" height="500" viewBox="0 0 500 500">
  <defs>
    <style>
      .cls-1 {
        stroke-width: 0px;
      }
    </style>
  </defs>
  <path class="cls-1" d="m250,468.9c-58.47,0-113.44-22.77-154.79-64.12-41.35-41.35-64.11-96.32-64.11-154.79s22.77-113.44,64.11-154.79C136.56,53.87,191.53,31.1,250,31.1s113.44,22.77,154.79,64.11c41.35,41.35,64.11,96.32,64.11,154.79s-22.77,113.44-64.11,154.79c-41.35,41.35-96.32,64.12-154.79,64.12Zm0-424.08c-113.13,0-205.17,92.04-205.17,205.17s92.04,205.17,205.17,205.17,205.17-92.04,205.17-205.17S363.13,44.83,250,44.83Z"/>
  <path class="cls-1" d="m190.41,316.54c2.83,2.83,6.55,4.25,10.26,4.25s7.43-1.42,10.26-4.25c5.67-5.67,5.67-14.85,0-20.52l-31.52-31.52h176.21c8.01,0,14.51-6.5,14.51-14.51s-6.5-14.51-14.51-14.51h-176.21l31.52-31.52c5.67-5.67,5.67-14.85,0-20.52-5.67-5.67-14.85-5.67-20.52,0l-56.29,56.29c-5.67,5.67-5.67,14.85,0,20.52l56.29,56.29Z"/>
</svg>