<svg xmlns="http://www.w3.org/2000/svg" id="creator_collective" data-name="creator collective" viewBox="41.24 131.35 417.52 248.33">
  <defs>
    <style>
      .cls-1, .cls-2, .cls-3 {
        stroke-width: 0px;
      }

      .cls-2 {
        fill: red;
      }

      .cls-3 {
        fill: #fff;
      }
    </style>
  </defs>
  <polygon class="cls-1" points="458.76 189.23 458.76 321.79 419.57 379.68 80.43 379.68 41.24 321.79 41.24 189.23 80.43 131.35 419.57 131.35 458.76 189.23"/>
  <g>
    <g>
      <path class="cls-2" d="m279.07,176.01c-.7-2.61-2.75-4.67-5.36-5.37-4.73-1.26-23.71-1.26-23.71-1.26,0,0-18.98,0-23.7,1.26-2.61.7-4.67,2.75-5.37,5.37-1.28,4.73-1.28,14.6-1.28,14.6,0,0,0,9.87,1.28,14.6.7,2.61,2.76,4.67,5.37,5.37,4.72,1.26,23.7,1.26,23.7,1.26,0,0,18.98,0,23.71-1.26,2.6-.7,4.66-2.76,5.36-5.37,1.28-4.73,1.28-14.6,1.28-14.6,0,0-.01-9.87-1.28-14.6Z"/>
      <polygon class="cls-2" points="243.93 199.72 243.93 181.52 259.69 190.62 243.93 199.72"/>
    </g>
    <polygon class="cls-3" points="259.69 190.62 243.93 199.72 243.93 181.52 259.69 190.62"/>
    <g>
      <path class="cls-3" d="m94.56,324.94c0-12.88,7.31-23.4,20.2-23.4,5.57,0,8.21,1.91,11.25,5.23l-4.61,5.79c-2.14-2.25-4.44-3.49-7.43-3.49-7.26,0-11.14,7.37-11.14,15.02,0,6.41,2.87,10.01,7.65,10.01,2.87,0,6.3-1.41,8.66-3.43l3.66,6.08c-3.83,3.15-8.89,4.89-13.9,4.89-9.17,0-14.35-6.08-14.35-16.71Z"/>
      <path class="cls-3" d="m128.03,325c0-13,7.31-23.46,19.52-23.46,9.68,0,14.74,6.41,14.74,16.43,0,12.94-7.37,23.63-19.63,23.63-9.51,0-14.63-6.47-14.63-16.6Zm25.99-6.13c0-6.13-2.59-9.79-7.09-9.79-7.09,0-10.63,7.54-10.63,15.25,0,6.08,2.64,9.73,7.14,9.73,6.98,0,10.58-7.03,10.58-15.19Z"/>
      <path class="cls-3" d="m180.69,302.44l-5.4,30.49h15.25l-1.35,7.82h-23.46l6.75-38.31h8.21Z"/>
      <path class="cls-3" d="m209.83,302.44l-5.4,30.49h15.25l-1.35,7.82h-23.46l6.75-38.31h8.21Z"/>
      <path class="cls-3" d="m230.76,302.44h24.47l-1.41,7.82h-16.26l-1.18,7.31h13.16l-2.31,7.26h-12.21l-1.46,8.1h16.26l-1.35,7.82h-24.47l6.75-38.31Z"/>
      <path class="cls-3" d="m256.24,324.94c0-12.88,7.31-23.4,20.2-23.4,5.57,0,8.21,1.91,11.25,5.23l-4.61,5.79c-2.14-2.25-4.44-3.49-7.43-3.49-7.26,0-11.14,7.37-11.14,15.02,0,6.41,2.87,10.01,7.65,10.01,2.87,0,6.3-1.41,8.66-3.43l3.66,6.08c-3.83,3.15-8.89,4.89-13.9,4.89-9.17,0-14.35-6.08-14.35-16.71Z"/>
      <path class="cls-3" d="m301.36,309.81h-11.31l1.29-7.37h30.83l-1.29,7.37h-11.31l-5.46,30.94h-8.21l5.46-30.94Z"/>
      <path class="cls-3" d="m327.97,302.44h8.21l-6.75,38.31h-8.21l6.75-38.31Z"/>
      <path class="cls-3" d="m341.53,302.44h8.5l4.05,26.78,13-26.78h8.55l-19.58,38.31h-8.04l-6.47-38.31Z"/>
      <path class="cls-3" d="m380.97,302.44h24.47l-1.41,7.82h-16.26l-1.18,7.31h13.16l-2.31,7.26h-12.21l-1.46,8.1h16.26l-1.35,7.82h-24.47l6.75-38.31Z"/>
    </g>
    <g>
      <path class="cls-3" d="m93.97,270.75c0-17.17,9.75-31.19,26.92-31.19,7.42,0,10.95,2.55,15,6.97l-6.15,7.72c-2.85-3-5.92-4.65-9.9-4.65-9.67,0-14.85,9.82-14.85,20.02,0,8.55,3.82,13.35,10.2,13.35,3.82,0,8.4-1.87,11.55-4.57l4.87,8.1c-5.1,4.2-11.85,6.52-18.52,6.52-12.22,0-19.12-8.1-19.12-22.27Z"/>
      <path class="cls-3" d="m145.41,240.76h17.02c12.22,0,18.67,5.4,17.17,15.6-1.27,7.42-5.55,12.37-12.3,14.7l9.6,20.77h-11.62l-9-19.42h-5.47l-3.45,19.42h-10.95l9-51.06Zm13.5,22.57c5.7,0,8.85-2.17,9.6-6.37.67-4.65-1.87-7.12-7.57-7.12h-6.15l-2.4,13.5h6.52Z"/>
      <path class="cls-3" d="m193.32,240.76h32.62l-1.87,10.42h-21.67l-1.57,9.75h17.55l-3.07,9.67h-16.27l-1.95,10.8h21.67l-1.8,10.42h-32.62l9-51.06Z"/>
      <path class="cls-3" d="m255.93,281.78h-18.97l-5.02,10.05h-11.25l27.29-51.06h10.95l9.82,51.06h-11.32l-1.5-10.05Zm-1.35-9.22l-3-20.1-10.05,20.1h13.05Z"/>
      <path class="cls-3" d="m287.5,250.58h-15.07l1.72-9.82h41.77l-3.07,9.82h-14.4l-7.27,41.24h-10.95l7.27-41.24Z"/>
      <path class="cls-3" d="m312.39,270.83c0-17.32,9.75-31.27,26.02-31.27,12.9,0,19.65,8.55,19.65,21.89,0,17.25-9.82,31.49-26.17,31.49-12.67,0-19.5-8.62-19.5-22.12Zm34.64-8.17c0-8.17-3.45-13.05-9.45-13.05-9.45,0-14.17,10.05-14.17,20.32,0,8.1,3.52,12.97,9.52,12.97,9.3,0,14.1-9.37,14.1-20.25Z"/>
      <path class="cls-3" d="m371.63,240.76h17.02c12.22,0,18.67,5.4,17.17,15.6-1.27,7.42-5.55,12.37-12.3,14.7l9.6,20.77h-11.62l-9-19.42h-5.47l-3.45,19.42h-10.95l9-51.06Zm13.5,22.57c5.7,0,8.85-2.17,9.6-6.37.67-4.65-1.87-7.12-7.57-7.12h-6.15l-2.4,13.5h6.52Z"/>
    </g>
  </g>
</svg>