<?xml version="1.0" encoding="UTF-8"?>
<svg id="sassy" xmlns="http://www.w3.org/2000/svg" width="500" height="500" viewBox="0 0 500 500">
  <defs>
    <style>
      .cls-1 {
        fill: #ffb309;
      }

      .cls-1, .cls-2, .cls-3, .cls-4, .cls-5 {
        stroke-width: 0px;
      }

      .cls-2 {
        fill: #ffa200;
      }

      .cls-3 {
        fill: #ffc818;
      }

      .cls-4 {
        fill: #42190f;
      }

      .cls-5 {
        fill: #0b090a;
      }
    </style>
  </defs>
  <g>
    <circle class="cls-2" cx="249.83" cy="251.25" r="218.73"/>
    <circle class="cls-1" cx="249.83" cy="240.93" r="208.93"/>
    <circle class="cls-3" cx="249.83" cy="219.02" r="189"/>
  </g>
  <path class="cls-4" d="m328.95,339.53c-3.54,19-17.35,34.88-34.09,44.06-33.37,18.85-80.43,11.08-103.43-20.32-4.69-6.37-8.24-13.7-9.92-21.43,9.7,10.62,21.64,19.67,34.8,25.16,39.8,16.83,85.14,5.84,112.64-27.47h0Z"/>
  <path class="cls-5" d="m455.87,146.12H48.33c-7.19,0-13.02,5.83-13.02,13.02s5.83,13.02,13.02,13.02h8.52v28.73c0,52.52,42.58,95.1,95.1,95.1h0c52.52,0,95.1-42.58,95.1-95.1v-28.73h10.09v28.73c0,52.52,42.58,95.1,95.1,95.1h0c52.52,0,95.1-42.58,95.1-95.1v-28.73h8.52c7.19,0,13.02-5.83,13.02-13.02s-5.83-13.02-13.02-13.02Z"/>
</svg>