<?xml version="1.0" encoding="UTF-8"?>
<svg id="chilli-2" data-name="chilli" xmlns="http://www.w3.org/2000/svg" width="500" height="500" viewBox="0 0 500 500">
  <defs>
    <style>
      .cls-1 {
        fill: #e81001;
      }

      .cls-1, .cls-2, .cls-3, .cls-4, .cls-5 {
        stroke-width: 0px;
      }

      .cls-2 {
        fill: #36a202;
      }

      .cls-3 {
        fill: #bd1100;
      }

      .cls-4 {
        fill: #d71703;
      }

      .cls-5 {
        fill: #369a02;
      }
    </style>
  </defs>
  <path class="cls-3" d="m220.45,433.7c-45.49,12.54-89.07,1.82-110.43-5.4-3.6-1.22-3.13-6.46.63-7.02,2.85-.42,5.67-.95,8.64-1.71,18.46-4.73,36.02-11.76,53.14-20.14,15.89-7.77,29.88-18.14,43.31-29.39,33.02-27.68,51.04-63.29,56.12-105.91,2.33-19.52,4.8-39.07,9.23-58.27,4.76-20.62,15.46-36.85,35.44-45.53,30.04-13.05,58.47-.14,69.24,30.84,9.08,26.12,6.15,51.97-1.21,77.71-6.12,21.41-15.6,41.4-27.23,60.33-36.78,59.87-84.44,88.75-136.87,104.48Z"/>
  <path class="cls-4" d="m360.42,225.21c-.24-36.9-40.47-36.16-76.9-27.9-.93,2.76-1.75,5.61-2.43,8.55-4.43,19.2-6.9,38.75-9.23,58.27-5.08,42.62-23.1,78.23-56.12,105.91-13.42,11.25-27.42,21.62-43.31,29.39-17.13,8.38-34.68,15.41-53.14,20.14-2.96.76-5.79,1.29-8.64,1.71-2.28.34-3.35,2.4-3.03,4.25,166.74,24.47,253.22-134.84,252.79-200.32Z"/>
  <path class="cls-1" d="m328.27,245.5c5.19-26.94-24.72-24.62-51.5-17.5-1.98,12-3.47,24.07-4.91,36.13-5.08,42.62-23.1,78.23-56.12,105.91-13.42,11.25-27.42,21.62-43.31,29.39-17.13,8.38-34.68,15.41-53.14,20.14-2.96.76-5.79,1.29-8.64,1.71-2.25.33-3.31,2.35-3.03,4.17,164.3-14.24,211.85-134.32,220.65-179.96Z"/>
  <path class="cls-5" d="m349.42,70.65c.14,1.56.23,3.16.28,4.8.41,13.08-1.8,28.46-4.84,41.99-2.44,10.88-9.55,20.25-19.61,25.05-10.21,4.88-25.05,15.44-41.65,37.89-3.01,4.07.29,7.24,4.27,5.78,5.66-2.08,14.16-4.35,21.43-6.58,7.66-2.35,13.98,1.08,14.62,9.06l2.24,27.9c.53,6.6,9.13,8.76,12.72,3.2l15.26-23.62c4.05-6.27,12.66-7.63,18.45-2.91l14.91,12.17c2.11,1.72,5.24,0,4.9-2.69-1.52-12.05-6.41-36.53-21.66-52.94-6.26-6.73-9.38-15.77-9.26-24.97.11-8.29.65-19.11,2.21-31.45,1.01-8.02,1.4-15.43,1.03-22.17-.95-17.13-16.22-10.82-15.31-.54Z"/>
  <path class="cls-2" d="m349.21,192.34c7.14-11.66,18.36-8.79,25.88-4.9,2.76,1.43,5.84-1.3,4.8-4.23-4.28-12.08-12.5-31.85-21.44-34.86-11.76-3.96-29.21,37.13-26.12,60.69.35,2.7,3.89,3.48,5.37,1.19l11.51-17.9Z"/>
  <path class="cls-2" d="m311.21,171.71c7.17-3.15,11.5,1.86,13.77,6.15.83,1.57,3.17,1.3,3.64-.42,1.94-7.08,4.53-19.06,1.31-23.4-4.24-5.71-25.87,7.91-32.12,20.01-.72,1.39.69,2.91,2.13,2.31l11.26-4.65Z"/>
  <path class="cls-2" d="m356.53,67.42c.55,3.29.5,6.59.57,9.89,0,3.3-.06,6.59-.17,9.89-.26,6.59-.72,13.16-1.28,19.73-.28,3.17-.52,6.35-.85,9.52-.59,5.74-.27,11.51.66,17.2.42,2.59.47,5.5-.57,8-2.39,5.76-7.78,7.22-11.57,8.32,0,0-12.37,3.61-10.24-3.66.69-2.36,4.68-5.34,8.31-9.42,5.63-6.34,9.24-14.75,11-25.43.26-1.6.48-3.2.69-4.81.87-6.5,1.65-13.02,2.23-19.55.32-3.27.6-6.53.81-9.81.15-3.27.41-6.57.08-9.81l.32-.06Z"/>
</svg>