<?xml version="1.0" encoding="UTF-8"?>
<svg id="star" xmlns="http://www.w3.org/2000/svg" width="500" height="500" viewBox="0 0 500 500">
  <defs>
    <style>
      .cls-1 {
        fill: #ffcb2b;
        stroke-width: 0px;
      }
    </style>
  </defs>
  <path class="cls-1" d="m432.83,203.3c-3.24-9.65-11.34-16.57-21.17-18.08l-95.11-14.6-42.63-90.44c-4.45-9.54-13.62-15.46-23.91-15.46s-19.47,5.93-23.91,15.43l-42.64,90.48-95.11,14.6c-9.82,1.51-17.93,8.44-21.17,18.08-3.34,9.94-.91,20.75,6.31,28.19l69.22,71.23-16.36,100.74c-1.72,10.61,2.57,20.96,11.21,27.04,4.5,3.16,9.71,4.76,14.95,4.76,4.33,0,8.66-1.1,12.64-3.3l84.65-47.22,85.11,47.22c8.79,4.88,19.36,4.31,27.58-1.47,8.64-6.06,12.93-16.42,11.21-27.02l-16.36-100.74,69.22-71.23c7.23-7.44,9.65-18.24,6.31-28.19v-.03Z"/>
</svg>