<?xml version="1.0" encoding="UTF-8"?>
<svg id="tired" xmlns="http://www.w3.org/2000/svg" width="500" height="500" xmlns:xlink="http://www.w3.org/1999/xlink" viewBox="0 0 500 500">
  <defs>
    <style>
      .cls-1 {
        fill: #ffb309;
      }

      .cls-1, .cls-2, .cls-3, .cls-4, .cls-5, .cls-6 {
        stroke-width: 0px;
      }

      .cls-2 {
        fill: none;
      }

      .cls-3 {
        fill: #ffa200;
      }

      .cls-4 {
        fill: #ffc818;
      }

      .cls-5 {
        fill: #42190f;
      }

      .cls-6 {
        fill: #fff;
      }

      .cls-7 {
        clip-path: url(#clippath);
      }
    </style>
    <clipPath id="clippath">
      <path class="cls-2" d="m131.45,347.35c0-8.94.97-17.6,2.9-25.96,7.35-32.92,28.33-60.62,56.75-76.91,17.35-9.96,37.46-15.66,58.88-15.66,25.72,0,49.55,8.22,68.98,22.14,23.4,16.73,40.41,41.77,46.79,70.82,1.84,8.22,2.8,16.77,2.8,25.57h-237.11Z"/>
    </clipPath>
  </defs>
  <g>
    <circle class="cls-3" cx="250" cy="251.25" r="218.9"/>
    <circle class="cls-1" cx="250" cy="240.92" r="209.1"/>
    <circle class="cls-4" cx="250" cy="219" r="189.15"/>
  </g>
  <g>
    <path class="cls-5" d="m131.45,347.35c0-8.94.97-17.6,2.9-25.96,7.35-32.92,28.33-60.62,56.75-76.91,17.35-9.96,37.46-15.66,58.88-15.66,25.72,0,49.55,8.22,68.98,22.14,23.4,16.73,40.41,41.77,46.79,70.82,1.84,8.22,2.8,16.77,2.8,25.57h-237.11Z"/>
    <g class="cls-7">
      <path class="cls-6" d="m141.19,264.87c0-8.74.94-17.19,2.83-25.36,108.9-19.36,191.83-6.89,226.07.38,1.79,8.03,2.74,16.39,2.74,24.98h-231.64Z"/>
    </g>
  </g>
  <g>
    <path class="cls-5" d="m380.97,166.56c-19.78,14.95-42.71,25.19-65.79,33.74,0,0,1.23-17.33,1.23-17.33,5.48,2.88,10.88,5.9,16.19,9.08,16.07,9.75,31.77,20.5,45,34.01-12.5-2.14-24.57-6.19-36.32-10.71-17.48-6.59-36.23-16.88-52.78-25.7,0,0,20.26-7.22,20.26-7.22,23.24-8.1,47.44-14.8,72.21-15.86h0Z"/>
    <path class="cls-5" d="m131.79,159.63c24.74,1.67,48.77,8.97,71.8,17.65,0,0,20.08,7.72,20.08,7.72-16.81,8.43-35.73,18.21-53.4,24.39-11.86,4.23-24.03,7.98-36.58,9.81,13.56-13.18,29.52-23.54,45.83-32.89,5.39-3.05,10.87-5.93,16.41-8.67l.8,17.36c-22.86-9.11-45.53-19.92-64.93-35.35h0Z"/>
  </g>
  <g>
    <path class="cls-5" d="m181.74,111.56c-15.81.24-31.56,2.23-45.58,8.9-10.39,4.88-19.76,11.99-28.8,19.06-3.49,2.73-6.83,5.52-10.64,8.07.17-2.35.56-4.63,1.04-6.9,3.89-16.19,15.2-30.35,30.36-37.43,17.35-8.19,40.45-6.31,53.63,8.3h0Z"/>
    <path class="cls-5" d="m318.26,111.56c13.18-14.62,36.28-16.49,53.63-8.3,15.16,7.08,26.46,21.24,30.36,37.43.48,2.27.87,4.55,1.04,6.9-3.81-2.55-7.16-5.34-10.64-8.07-9.04-7.07-18.41-14.18-28.8-19.06-14.02-6.68-29.76-8.66-45.58-8.9h0Z"/>
  </g>
</svg>