<?xml version="1.0" encoding="UTF-8"?>
<svg id="timer" xmlns="http://www.w3.org/2000/svg" width="500" height="500" viewBox="0 0 500 500">
  <defs>
    <style>
      .cls-1 {
        stroke-width: 0px;
      }
    </style>
  </defs>
  <path class="cls-1" d="m250,33.31c-120.7,0-218.9,98.2-218.9,218.9s98.2,218.91,218.9,218.91,218.9-98.2,218.9-218.91c0-120.7-98.2-218.9-218.9-218.9Zm0,407.84c-104.18,0-188.93-84.76-188.93-188.94,0-104.18,84.76-188.94,188.93-188.94s188.94,84.76,188.94,188.94c0,104.18-84.76,188.94-188.94,188.94Z"/>
  <path class="cls-1" d="m362.95,249.3h-103.99v-113.6c0-8.27-6.71-14.98-14.98-14.98s-14.98,6.71-14.98,14.98v128.58c0,8.27,6.71,14.98,14.98,14.98h118.97c8.28,0,14.98-6.71,14.98-14.98s-6.71-14.98-14.98-14.98Z"/>
</svg>