<?xml version="1.0" encoding="UTF-8"?>
<svg id="happy" xmlns="http://www.w3.org/2000/svg" width="500" height="500" viewBox="0 0 500 500">
  <defs>
    <style>
      .cls-1 {
        fill: #ffb309;
      }

      .cls-1, .cls-2, .cls-3, .cls-4, .cls-5, .cls-6 {
        stroke-width: 0px;
      }

      .cls-2 {
        fill: #db3f46;
      }

      .cls-3 {
        fill: #ffa200;
      }

      .cls-4 {
        fill: #ffc818;
      }

      .cls-5 {
        fill: #42190f;
      }

      .cls-6 {
        fill: #fff;
      }
    </style>
  </defs>
  <g>
    <circle class="cls-3" cx="250" cy="251.25" r="218.9"/>
    <circle class="cls-1" cx="250" cy="240.92" r="209.1"/>
    <circle class="cls-4" cx="250" cy="219" r="189.15"/>
  </g>
  <g>
    <path class="cls-5" d="m367.89,296.43c0,8.94-.97,17.6-2.9,25.96-7.35,32.92-28.33,60.62-56.75,76.91-17.35,9.96-37.46,15.66-58.88,15.66-25.72,0-49.55-8.22-68.98-22.14-23.4-16.73-40.41-41.77-46.79-70.82-1.84-8.22-2.8-16.77-2.8-25.57h237.11Z"/>
    <path class="cls-6" d="m365.16,298.99c0,8.74-.94,17.19-2.83,25.36-108.9,19.36-191.83,6.89-226.07-.38-1.79-8.03-2.74-16.39-2.74-24.98h231.64Z"/>
    <path class="cls-2" d="m308.24,399.3c-6.63,3.8-13.66,6.99-21.01,9.47-3.24,1.09-6.54,2.05-9.9,2.86-8.97,2.18-18.34,3.33-27.96,3.33-19.32,0-37.58-4.64-53.71-12.85-3.93-2-7.75-4.22-11.42-6.65-1.3-.85-2.59-1.74-3.86-2.64,11.65-16.82,35.1-28.28,62.06-28.28,30.27,0,56.08,14.46,65.79,34.76Z"/>
  </g>
  <g>
    <path class="cls-5" d="m277.19,192.13c3.77-12.68,13.09-23.04,24.56-29.6,30.32-17.68,73.03-4.72,86.78,27.86,2.49,5.97,4.02,12.39,3.9,18.85-1.03-1.26-1.94-2.51-2.86-3.73-2.7-3.38-5.78-6.98-8.83-9.96-29.92-29.34-71.31-28.77-103.57-3.42h0Z"/>
    <path class="cls-5" d="m222.74,188.05c-33.9-23.13-75.24-20.9-103.1,10.37-2.84,3.17-5.7,6.99-8.14,10.53-.84,1.28-1.66,2.6-2.6,3.92-.55-6.44.54-12.94,2.63-19.07,11.54-33.43,53.27-49.23,84.71-33.63,11.89,5.76,21.88,15.48,26.5,27.88h0Z"/>
  </g>
</svg>