<?xml version="1.0" encoding="UTF-8"?>
<svg id="tangy" xmlns="http://www.w3.org/2000/svg" width="500" height="500" xmlns:xlink="http://www.w3.org/1999/xlink" viewBox="0 0 500 500">
  <defs>
    <style>
      .cls-1 {
        fill: url(#linear-gradient);
      }

      .cls-1, .cls-2, .cls-3, .cls-4, .cls-5, .cls-6 {
        stroke-width: 0px;
      }

      .cls-2 {
        fill: #ffb309;
      }

      .cls-3 {
        fill: #ffa200;
      }

      .cls-4 {
        fill: #ffc818;
      }

      .cls-5 {
        fill: #42190f;
      }

      .cls-6 {
        fill: #fff;
      }
    </style>
    <linearGradient id="linear-gradient" x1="244.27" y1="458.72" x2="247.41" y2="303.26" gradientUnits="userSpaceOnUse">
      <stop offset="0" stop-color="#db3f46"/>
      <stop offset=".16" stop-color="#d63d44"/>
      <stop offset=".32" stop-color="#ca3a40"/>
      <stop offset=".49" stop-color="#b63538"/>
      <stop offset=".65" stop-color="#9a2e2e"/>
      <stop offset=".81" stop-color="#752521"/>
      <stop offset=".97" stop-color="#491a11"/>
      <stop offset="1" stop-color="#42190f"/>
    </linearGradient>
  </defs>
  <g>
    <circle class="cls-3" cx="250" cy="250.91" r="199.48"/>
    <circle class="cls-2" cx="250" cy="241.5" r="190.54"/>
    <circle class="cls-4" cx="250" cy="221.52" r="172.36"/>
  </g>
  <g>
    <path class="cls-5" d="m360.31,276.52c0,8.43-.91,16.59-2.73,24.47-6.93,31.04-26.71,57.15-53.51,72.51-16.36,9.39-35.32,14.77-55.51,14.77-24.25,0-46.72-7.75-65.04-20.87-22.06-15.77-38.1-39.38-44.12-66.77-1.73-7.75-2.64-15.81-2.64-24.11h223.55Z"/>
    <path class="cls-1" d="m298.46,341.65v56.81c0,28.92-23.45,52.38-52.42,52.38s-52.38-23.45-52.38-52.38v-56.81c0-9.74,3.98-18.48,10.4-24.78,6.3-6.17,14.83-9.99,24.37-9.99h35.26c9.61,0,18.36,3.94,24.66,10.28,6.26,6.26,10.11,14.92,10.11,24.49Z"/>
  </g>
  <g>
    <path class="cls-5" d="m129.99,205.67c2.15-12.37,9.89-23.11,20.07-30.44,26.68-19.71,68.75-11.43,84.44,18.22,2.86,5.43,4.83,11.37,5.22,17.49-1.11-1.07-2.1-2.15-3.1-3.2-6.54-6.64-14.31-12.7-22.49-16.75-29.29-14.73-60.62-7.03-84.13,14.68h0Z"/>
    <circle class="cls-6" cx="327.31" cy="186.01" r="53.84"/>
    <circle class="cls-5" cx="327.31" cy="186.01" r="19.75"/>
  </g>
</svg>