<?xml version="1.0" encoding="UTF-8"?>
<svg xmlns="http://www.w3.org/2000/svg" width="500" height="500" viewBox="0 0 500 500">
  <defs>
    <style>
      .cls-1, .cls-2, .cls-3, .cls-4, .cls-5, .cls-6, .cls-7, .cls-8, .cls-9, .cls-10, .cls-11, .cls-12, .cls-13, .cls-14, .cls-15, .cls-16, .cls-17, .cls-18, .cls-19, .cls-20, .cls-21, .cls-22, .cls-23 {
        stroke-width: 0px;
      }

      .cls-1, .cls-9, .cls-11 {
        fill: #cdddec;
      }

      .cls-24, .cls-2, .cls-6, .cls-7, .cls-25, .cls-9, .cls-11, .cls-13, .cls-17, .cls-18 {
        mix-blend-mode: screen;
      }

      .cls-24, .cls-11, .cls-20 {
        opacity: .4;
      }

      .cls-2, .cls-16, .cls-21 {
        fill: #ebebed;
      }

      .cls-26 {
        opacity: .5;
      }

      .cls-3, .cls-13 {
        fill: #949494;
      }

      .cls-4 {
        fill: #f6fbff;
      }

      .cls-5, .cls-7 {
        fill: #bfd6e3;
      }

      .cls-27 {
        isolation: isolate;
      }

      .cls-6, .cls-7, .cls-9, .cls-17 {
        opacity: .75;
      }

      .cls-6, .cls-18, .cls-19 {
        fill: #dae8f5;
      }

      .cls-25, .cls-13 {
        opacity: .6;
      }

      .cls-8, .cls-17, .cls-20 {
        fill: #a6c8e0;
      }

      .cls-10 {
        fill: #434749;
      }

      .cls-12 {
        fill: #71797f;
      }

      .cls-14 {
        fill: #e4f3ff;
        opacity: .95;
      }

      .cls-15 {
        fill: #d9d9d9;
      }

      .cls-16, .cls-20 {
        mix-blend-mode: multiply;
      }

      .cls-18 {
        opacity: .8;
      }

      .cls-22 {
        fill: #ababab;
      }

      .cls-23 {
        fill: #686c6d;
      }
    </style>
  </defs>
  <g class="cls-27">
    <g id="salty">
      <g>
        <g>
          <path class="cls-14" d="m329.86,222.8c-2.64-5.11-17.28,2.02-44.36-3.28-10.77-2.11-9.6-3.45-19.23-5.49-28.13-5.96-37.99,5.56-74.55,8.98-2.57.24-11.37,1.01-19.6,6.96-3.24,2.34-7.53,5.8-7.04,9.04,1.18,7.8,31.16,9.32,40.92,9.82,24.48,1.26,25.54-2.35,45.06-.92,27.13,2,30.92,9.41,45.79,5.86,20.84-4.97,36.12-24.93,33.01-30.97Z"/>
          <path class="cls-19" d="m165.08,239c-.03-.19-.04-.39-.04-.58l-14.2,128.56c-1.03,9.3,3.08,18.47,10.98,24.48l25.89,19.71,14.36-162.56c-12.13-.71-35.94-2.67-36.99-9.61Z"/>
          <path class="cls-6" d="m172.12,229.96c8.23-5.95,17.03-6.72,19.6-6.96,4.66-.43,8.88-1,12.76-1.65l6.84-77.39h-18.76c-9.7,0-17.82,6.66-18.78,15.4l-8.66,78.37c.57-2.85,4.18-5.73,7-7.77Z"/>
          <path class="cls-1" d="m206.01,248.83c-1.08-.06-2.42-.12-3.93-.21l-14.36,162.56,62.36,9.93v-173.26c-18.57-1.24-20.01,2.22-44.07.98Z"/>
          <path class="cls-9" d="m250.08,143.96h-38.76l-6.84,77.39c19.98-3.32,30.96-8.72,45.6-9v-68.4Z"/>
          <path class="cls-17" d="m329.86,222.8c.19.37.31.8.37,1.27l-8.54-65c-1.13-8.62-9.2-15.12-18.79-15.12h-12.92l8.69,77.33c18.69,1.38,29.01-2.7,31.18,1.51Z"/>
          <path class="cls-8" d="m349.09,367.65l-18.86-143.55c.72,6.53-11.27,21.8-28.09,28.05l17.56,156.25,19.74-16.77c7.24-6.15,10.82-15.05,9.65-23.98Z"/>
          <path class="cls-5" d="m251.07,247.91c-.34-.02-.66-.04-.99-.07v173.26l69.63-12.7-17.56-156.25c-1.72.64-3.48,1.19-5.29,1.62-14.87,3.55-18.66-3.86-45.79-5.86Z"/>
          <path class="cls-7" d="m266.27,214.02c9.63,2.04,8.47,3.39,19.23,5.49,4.78.94,9.17,1.48,13.18,1.77l-8.69-77.33h-39.91v68.4c4.84-.09,10.09.38,16.19,1.67Z"/>
          <g class="cls-26">
            <path class="cls-2" d="m304,331.02c.92,1.47.47,3.41-1,4.33-1.47.92-3.41.47-4.33-1s-.47-3.41,1-4.33,3.41-.47,4.33,1Z"/>
            <path class="cls-16" d="m301.82,299.94c1.13,1.82.58,4.21-1.24,5.35-1.82,1.13-4.21.58-5.35-1.24-1.13-1.82-.58-4.21,1.24-5.35s4.21-.58,5.35,1.24Z"/>
            <path class="cls-2" d="m303.67,278.91c.86,1.39.44,3.21-.95,4.08s-3.21.44-4.08-.95c-.86-1.39-.44-3.21.95-4.08,1.39-.86,3.21-.44,4.08.95Z"/>
            <path class="cls-2" d="m308.7,229.9c1.08,1.73.55,4.01-1.18,5.09-1.73,1.08-4.01.55-5.09-1.18-1.08-1.73-.55-4.01,1.18-5.09,1.73-1.08,4.01-.55,5.09,1.18Z"/>
            <path class="cls-2" d="m314.55,262.55c.71,1.13.36,2.63-.77,3.34-1.13.71-2.63.36-3.34-.77-.71-1.13-.36-2.63.77-3.34,1.13-.71,2.63-.36,3.34.77Z"/>
            <path class="cls-2" d="m260.13,253.16c.58.93.3,2.16-.63,2.74s-2.16.3-2.74-.63c-.58-.93-.3-2.16.63-2.74s2.16-.3,2.74.63Z"/>
            <path class="cls-2" d="m234.47,247.85c.59.95.3,2.19-.64,2.78-.95.59-2.19.3-2.78-.64-.59-.95-.3-2.19.64-2.78.95-.59,2.19-.3,2.78.64Z"/>
            <path class="cls-2" d="m230.26,255.86c.75,1.19.38,2.77-.81,3.51-1.19.75-2.77.38-3.51-.81-.75-1.19-.38-2.77.81-3.51,1.19-.75,2.77-.38,3.51.81Z"/>
            <path class="cls-16" d="m261.87,276.74c1.16,1.87.59,4.33-1.27,5.49-1.87,1.16-4.33.59-5.49-1.27s-.59-4.33,1.27-5.49c1.87-1.16,4.33-.59,5.49,1.27Z"/>
            <path class="cls-2" d="m279.09,258.74c.64,1.02.33,2.37-.7,3s-2.37.33-3-.7-.33-2.37.7-3,2.37-.33,3,.7Z"/>
            <path class="cls-2" d="m270.58,244.57c.41.65.21,1.51-.45,1.92-.65.41-1.51.21-1.92-.45-.41-.65-.21-1.51.45-1.92.65-.41,1.51-.21,1.92.45Z"/>
            <path class="cls-2" d="m206.6,231.27c.32.52.17,1.2-.35,1.53-.52.32-1.2.17-1.53-.35-.32-.52-.17-1.2.35-1.53.52-.32,1.2-.17,1.53.35Z"/>
            <path class="cls-2" d="m199.29,228.92c.53.86.27,1.99-.58,2.52s-1.99.27-2.52-.58c-.53-.86-.27-1.99.58-2.52s1.99-.27,2.52.58Z"/>
            <path class="cls-2" d="m219.39,238.43c.75,1.19.38,2.77-.81,3.51-1.19.75-2.77.38-3.51-.81-.75-1.19-.38-2.77.81-3.51,1.19-.75,2.77-.38,3.51.81Z"/>
            <path class="cls-2" d="m328.32,341.82c1.18,1.9.6,4.39-1.29,5.57-1.9,1.18-4.39.6-5.57-1.29-1.18-1.9-.6-4.39,1.29-5.57,1.9-1.18,4.39-.6,5.57,1.29Z"/>
            <path class="cls-2" d="m332.26,343.5c-.87-1.4-.44-3.23.95-4.1s3.23-.44,4.1.95c.87,1.4.44,3.23-.95,4.1-1.4.87-3.23.44-4.1-.95Z"/>
            <path class="cls-2" d="m286.07,317.64c.86,1.39.44,3.21-.94,4.07-1.39.86-3.21.44-4.07-.94s-.44-3.21.94-4.07c1.39-.86,3.21-.44,4.07.94Z"/>
            <path class="cls-2" d="m274.89,223.84c.65,1.04.33,2.41-.71,3.05s-2.41.33-3.05-.71c-.65-1.04-.33-2.41.71-3.05,1.04-.65,2.41-.33,3.05.71Z"/>
            <path class="cls-2" d="m296.12,228.5c.77,1.23.39,2.85-.84,3.62-1.23.77-2.85.39-3.62-.84-.77-1.23-.39-2.85.84-3.62,1.23-.77,2.85-.39,3.62.84Z"/>
            <path class="cls-16" d="m284.39,368.87c1.1,1.76.56,4.09-1.2,5.19-1.76,1.1-4.09.56-5.19-1.2-1.1-1.76-.56-4.09,1.2-5.19,1.76-1.1,4.09-.56,5.19,1.2Z"/>
            <path class="cls-2" d="m272.19,378.7c.55.88.28,2.04-.6,2.59s-2.04.28-2.59-.6-.28-2.04.6-2.59c.88-.55,2.04-.28,2.59.6Z"/>
            <path class="cls-2" d="m227.16,399.24c.83,1.34.43,3.1-.91,3.93-1.34.83-3.1.43-3.93-.91-.83-1.34-.43-3.1.91-3.93,1.34-.83,3.1-.43,3.93.91Z"/>
            <path class="cls-2" d="m158.34,359.75c.41.65.21,1.51-.45,1.92s-1.51.21-1.92-.45c-.41-.65-.21-1.51.45-1.92.65-.41,1.51-.21,1.92.45Z"/>
            <path class="cls-2" d="m185.32,382.28c.6.96.31,2.22-.65,2.82-.96.6-2.22.31-2.82-.65-.6-.96-.31-2.22.65-2.82s2.22-.31,2.82.65Z"/>
            <path class="cls-2" d="m310.86,402.27c.74,1.18.38,2.74-.81,3.48s-2.74.38-3.48-.81c-.74-1.18-.38-2.74.81-3.48,1.18-.74,2.74-.38,3.48.81Z"/>
            <path class="cls-16" d="m274.73,406.49c.88,1.42.45,3.28-.97,4.16-1.42.88-3.28.45-4.16-.97-.88-1.42-.45-3.28.97-4.16,1.42-.88,3.28-.45,4.16.97Z"/>
            <path class="cls-2" d="m334.47,378.04c.92,1.47.47,3.4-1,4.32-1.47.92-3.4.47-4.32-1-.92-1.47-.47-3.4,1-4.32,1.47-.92,3.4-.47,4.32,1Z"/>
            <circle class="cls-2" cx="295.33" cy="398.78" r="2.85" transform="translate(-148.58 177) rotate(-26.93)"/>
            <path class="cls-2" d="m182.8,398.47c.44.7.22,1.62-.48,2.05-.7.44-1.62.22-2.05-.48s-.22-1.62.48-2.05,1.62-.22,2.05.48Z"/>
            <path class="cls-16" d="m214.87,386.08c.79,1.27.4,2.94-.87,3.73-1.27.79-2.94.4-3.73-.87-.79-1.27-.4-2.94.87-3.73,1.27-.79,2.94-.4,3.73.87Z"/>
            <path class="cls-2" d="m226.87,370.36c.28.45.14,1.03-.3,1.31-.45.28-1.03.14-1.31-.3-.28-.45-.14-1.03.3-1.31.45-.28,1.03-.14,1.31.3Z"/>
            <path class="cls-16" d="m248.87,352.62c1.01,1.62.51,3.74-1.1,4.75-1.62,1.01-3.74.51-4.75-1.1s-.51-3.74,1.1-4.75c1.62-1.01,3.74-.51,4.75,1.1Z"/>
            <path class="cls-2" d="m254.14,336.85c.65,1.04.33,2.41-.71,3.05-1.04.65-2.41.33-3.05-.71-.65-1.04-.33-2.41.71-3.05,1.04-.65,2.41-.33,3.05.71Z"/>
            <circle class="cls-2" cx="262.8" cy="323.03" r="2.83"/>
            <path class="cls-2" d="m197.27,339.33c.6.97.31,2.24-.66,2.85-.97.6-2.24.31-2.85-.66-.6-.97-.31-2.24.66-2.85.97-.6,2.24-.31,2.85.66Z"/>
            <path class="cls-16" d="m208.23,327c1.04,1.67.53,3.87-1.14,4.91s-3.87.53-4.91-1.14c-1.04-1.67-.53-3.87,1.14-4.91,1.67-1.04,3.87-.53,4.91,1.14Z"/>
            <path class="cls-2" d="m211.45,307.23c.24.38.12.88-.26,1.12s-.88.12-1.12-.26-.12-.88.26-1.12.88-.12,1.12.26Z"/>
            <path class="cls-2" d="m193.4,299.97c.25.4.13.94-.28,1.19s-.94.13-1.19-.28c-.25-.4-.13-.94.28-1.19.4-.25.94-.13,1.19.28Z"/>
            <path class="cls-2" d="m199.33,287.79c.74,1.19.38,2.75-.81,3.49s-2.75.38-3.49-.81c-.74-1.19-.38-2.75.81-3.49s2.75-.38,3.49.81Z"/>
            <path class="cls-2" d="m221.12,289.43c.85,1.36.43,3.14-.92,3.98-1.36.85-3.14.43-3.98-.92-.85-1.36-.43-3.14.92-3.98,1.36-.85,3.14-.43,3.98.92Z"/>
            <path class="cls-2" d="m222.14,308.05c.45.73.23,1.69-.5,2.14-.73.45-1.69.23-2.14-.5-.45-.73-.23-1.69.5-2.14s1.69-.23,2.14.5Z"/>
            <path class="cls-2" d="m231.76,320.51c.86,1.39.44,3.21-.94,4.07-1.39.86-3.21.44-4.07-.94-.86-1.39-.44-3.21.94-4.07,1.39-.86,3.21-.44,4.07.94Z"/>
            <path class="cls-2" d="m229.87,333.24c.39.63.2,1.45-.43,1.84s-1.45.2-1.84-.43c-.39-.63-.2-1.45.43-1.84.63-.39,1.45-.2,1.84.43Z"/>
            <path class="cls-2" d="m210.46,353.49c.54.87.28,2.01-.59,2.55s-2.01.28-2.55-.59-.28-2.01.59-2.55,2.01-.28,2.55.59Z"/>
            <path class="cls-2" d="m193.1,362.5c.45.72.23,1.67-.49,2.12-.72.45-1.67.23-2.12-.49-.45-.72-.23-1.67.49-2.12.72-.45,1.67-.23,2.12.49Z"/>
            <path class="cls-2" d="m170.86,368.37c.41.66.21,1.53-.45,1.94s-1.53.21-1.94-.45c-.41-.66-.21-1.53.45-1.94.66-.41,1.53-.21,1.94.45Z"/>
            <path class="cls-2" d="m169.71,378.79c.87,1.4.45,3.24-.95,4.12-1.4.87-3.24.45-4.12-.95-.87-1.4-.45-3.24.95-4.12s3.24-.45,4.12.95Z"/>
            <path class="cls-2" d="m172.61,323.43c.93,1.49.48,3.46-1.02,4.39-1.49.93-3.46.48-4.39-1.02-.93-1.49-.48-3.46,1.02-4.39,1.49-.93,3.46-.48,4.39,1.02Z"/>
            <path class="cls-2" d="m169.35,301.9c.4.63.2,1.47-.43,1.87-.63.4-1.47.2-1.87-.43s-.2-1.47.43-1.87c.63-.4,1.47-.2,1.87.43Z"/>
            <path class="cls-2" d="m170.93,286.28c.29.47.15,1.1-.32,1.39-.47.29-1.1.15-1.39-.32-.29-.47-.15-1.1.32-1.39.47-.29,1.1-.15,1.39.32Z"/>
            <path class="cls-2" d="m172.77,272.63c.53.85.27,1.96-.58,2.49-.85.53-1.96.27-2.49-.58s-.27-1.96.58-2.49c.85-.53,1.96-.27,2.49.58Z"/>
            <path class="cls-2" d="m178.88,256.52c.62,1,.32,2.31-.68,2.93-1,.62-2.31.32-2.93-.68-.62-1-.32-2.31.68-2.93,1-.62,2.31-.32,2.93.68Z"/>
            <path class="cls-2" d="m183.26,249.63c.68,1.1.35,2.54-.75,3.23s-2.54.35-3.23-.75-.35-2.54.75-3.23c1.1-.68,2.54-.35,3.23.75Z"/>
            <path class="cls-2" d="m181.41,234.63c.63,1,.32,2.32-.68,2.95-1,.63-2.32.32-2.95-.68-.63-1-.32-2.32.68-2.95,1-.63,2.32-.32,2.95.68Z"/>
            <path class="cls-16" d="m201.99,245c1.06,1.7.54,3.95-1.16,5.01-1.7,1.06-3.95.54-5.01-1.16-1.06-1.7-.54-3.95,1.16-5.01,1.7-1.06,3.95-.54,5.01,1.16Z"/>
            <path class="cls-2" d="m211.08,261.56c.81,1.29.41,2.99-.88,3.8-1.29.81-2.99.41-3.8-.88s-.41-2.99.88-3.8c1.29-.81,2.99-.41,3.8.88Z"/>
            <path class="cls-2" d="m227.12,271.74c.42.68.22,1.57-.46,2-.68.42-1.57.22-2-.46-.42-.68-.22-1.57.46-2,.68-.42,1.57-.22,2,.46Z"/>
            <path class="cls-21" d="m324.7,307.96c.94,1.51.48,3.49-1.03,4.43-1.51.94-3.49.48-4.43-1.03-.94-1.51-.48-3.49,1.03-4.43,1.51-.94,3.49-.48,4.43,1.03Z"/>
            <path class="cls-21" d="m284.42,294.27c.6.97.31,2.24-.66,2.84-.97.6-2.24.31-2.84-.66-.6-.97-.31-2.24.66-2.84.97-.6,2.24-.31,2.84.66Z"/>
            <path class="cls-21" d="m305.37,315.54c.37.59.19,1.37-.4,1.74s-1.37.19-1.74-.4c-.37-.59-.19-1.37.4-1.74.59-.37,1.37-.19,1.74.4Z"/>
            <path class="cls-21" d="m296.93,340.4c.96,1.54.49,3.58-1.05,4.54-1.54.96-3.58.49-4.54-1.05-.96-1.54-.49-3.58,1.05-4.54,1.54-.96,3.58-.49,4.54,1.05Z"/>
            <path class="cls-16" d="m311.47,365.64c1.45,2.32.74,5.37-1.58,6.82-2.32,1.45-5.37.74-6.82-1.58-1.45-2.32-.74-5.37,1.58-6.82,2.32-1.45,5.37-.74,6.82,1.58Z"/>
            <path class="cls-21" d="m332.77,329.56c.92,1.47.47,3.41-1,4.33-1.47.92-3.41.47-4.33-1-.92-1.47-.47-3.41,1-4.33,1.47-.92,3.41-.47,4.33,1Z"/>
            <path class="cls-21" d="m338.94,372.02c.66,1.05.33,2.44-.72,3.09s-2.44.33-3.09-.72c-.66-1.05-.33-2.44.72-3.09s2.44-.33,3.09.72Z"/>
            <circle class="cls-21" cx="295.55" cy="310.11" r="1.42"/>
            <path class="cls-21" d="m227.75,221.34c.52.84.27,1.94-.57,2.46-.84.52-1.94.27-2.46-.57-.52-.84-.27-1.94.57-2.46s1.94-.27,2.46.57Z"/>
            <path class="cls-21" d="m295.77,242.11c.65,1.04.33,2.41-.71,3.05s-2.41.33-3.05-.71c-.65-1.04-.33-2.41.71-3.05,1.04-.65,2.41-.33,3.05.71Z"/>
            <path class="cls-21" d="m327.24,227.22c.52.84.27,1.94-.57,2.46s-1.94.27-2.46-.57-.27-1.94.57-2.46c.84-.52,1.94-.27,2.46.57Z"/>
            <path class="cls-21" d="m243.37,232.55c.54.87.28,2.01-.59,2.55s-2.01.28-2.55-.59-.28-2.01.59-2.55c.87-.54,2.01-.28,2.55.59Z"/>
            <path class="cls-21" d="m291.28,253.02c.47.75.24,1.73-.51,2.2-.75.47-1.73.24-2.2-.51-.47-.75-.24-1.73.51-2.2s1.73-.24,2.2.51Z"/>
            <circle class="cls-21" cx="254.36" cy="240.81" r="1.64" transform="translate(4.69 486.48) rotate(-87.97)"/>
            <path class="cls-21" d="m233.44,234.6c.48.77.24,1.78-.52,2.26-.77.48-1.78.24-2.26-.52-.48-.77-.24-1.78.52-2.26.77-.48,1.78-.24,2.26.52Z"/>
            <path class="cls-21" d="m221.64,228.09c.44.7.22,1.62-.48,2.06s-1.62.22-2.06-.48-.22-1.62.48-2.06,1.62-.22,2.06.48Z"/>
            <path class="cls-16" d="m215.52,258.67c.77,1.24.4,2.87-.85,3.65-1.24.77-2.87.4-3.65-.85-.77-1.24-.4-2.87.85-3.65,1.24-.77,2.87-.4,3.65.85Z"/>
            <path class="cls-16" d="m200.95,383.6c.73,1.18.37,2.72-.8,3.46-1.18.73-2.72.37-3.46-.8-.73-1.18-.37-2.72.8-3.46,1.18-.73,2.72-.37,3.46.8Z"/>
            <path class="cls-21" d="m176.24,352.57c.64,1.02.32,2.36-.69,3-1.02.64-2.36.32-3-.69s-.32-2.36.69-3c1.02-.64,2.36-.32,3,.7Z"/>
            <path class="cls-21" d="m220.77,322.17c.74,1.19.38,2.75-.81,3.49s-2.75.38-3.49-.81c-.74-1.19-.38-2.75.81-3.49s2.75-.38,3.49.81Z"/>
            <path class="cls-21" d="m208.3,291.73c.73,1.17.37,2.71-.8,3.44-1.17.73-2.71.37-3.44-.8-.73-1.17-.37-2.71.8-3.44,1.17-.73,2.71-.37,3.44.8Z"/>
            <path class="cls-21" d="m206.19,274.38c.4.63.2,1.47-.43,1.87-.63.4-1.47.2-1.87-.43s-.2-1.47.43-1.87,1.47-.2,1.87.43Z"/>
            <path class="cls-21" d="m191.73,278.66c.5.81.26,1.87-.55,2.38-.81.5-1.87.26-2.38-.55-.5-.81-.26-1.87.55-2.38.81-.5,1.87-.26,2.38.55Z"/>
            <path class="cls-21" d="m195.94,311.44c.72,1.16.37,2.68-.79,3.4-1.16.72-2.68.37-3.4-.79-.72-1.16-.37-2.68.79-3.4s2.68-.37,3.4.79Z"/>
            <path class="cls-21" d="m203.92,341.17c.82,1.31.42,3.04-.89,3.85-1.31.82-3.04.42-3.85-.89s-.42-3.04.89-3.85c1.31-.82,3.04-.42,3.85.89Z"/>
            <circle class="cls-21" cx="222.14" cy="351.13" r="2.6" transform="translate(-11.49 7.54) rotate(-1.89)"/>
            <path class="cls-21" d="m238.54,312.58c.37.59.19,1.38-.4,1.75-.59.37-1.38.19-1.75-.4s-.19-1.38.4-1.75c.59-.37,1.38-.19,1.75.4Z"/>
            <path class="cls-16" d="m261.66,306.21c.75,1.19.38,2.77-.81,3.51-1.19.75-2.77.38-3.51-.81-.75-1.19-.38-2.77.81-3.51,1.19-.75,2.77-.38,3.51.81Z"/>
            <path class="cls-21" d="m259.22,295.18c.55.88.28,2.05-.6,2.6-.88.55-2.05.28-2.6-.6s-.28-2.05.6-2.6,2.05-.28,2.6.6Z"/>
            <circle class="cls-21" cx="215.2" cy="411.26" r="2.47"/>
            <path class="cls-21" d="m258.92,410.16c.61.97.31,2.25-.66,2.85s-2.25.31-2.85-.66c-.61-.97-.31-2.25.66-2.86.97-.61,2.25-.31,2.85.66Z"/>
            <path class="cls-16" d="m282.18,388.71c.84,1.35.43,3.12-.92,3.96-1.35.84-3.12.43-3.96-.92-.84-1.35-.43-3.12.92-3.96,1.35-.84,3.12-.43,3.96.92Z"/>
            <path class="cls-21" d="m236.85,406.37c.33.53.17,1.22-.36,1.55-.53.33-1.22.17-1.55-.36-.33-.53-.17-1.22.36-1.55.53-.33,1.22-.17,1.55.36Z"/>
            <path class="cls-21" d="m244.6,391.95c.67,1.07.34,2.49-.73,3.16-1.07.67-2.49.34-3.16-.73-.67-1.07-.34-2.49.73-3.16,1.07-.67,2.49-.34,3.16.73Z"/>
            <path class="cls-21" d="m257.78,395.77c.58.92.29,2.14-.63,2.71s-2.14.29-2.71-.63-.29-2.14.63-2.71c.92-.58,2.14-.29,2.71.63Z"/>
            <path class="cls-16" d="m273.48,345.51c.45.73.23,1.68-.49,2.13s-1.68.23-2.13-.49c-.45-.73-.23-1.68.49-2.13.73-.45,1.68-.23,2.13.49Z"/>
            <path class="cls-16" d="m292.95,353.11c1.14,1.83.58,4.24-1.25,5.39-1.83,1.14-4.24.58-5.39-1.25-1.14-1.83-.58-4.24,1.25-5.39,1.83-1.14,4.24-.58,5.39,1.25Z"/>
            <path class="cls-16" d="m316.98,282.13c.94,1.5.48,3.48-1.02,4.41-1.5.94-3.48.48-4.41-1.02-.94-1.5-.48-3.48,1.02-4.41s3.48-.48,4.41,1.02Z"/>
            <path class="cls-16" d="m290.92,265.94c.65,1.04.33,2.41-.71,3.05-1.04.65-2.41.33-3.05-.71-.65-1.04-.33-2.41.71-3.05,1.04-.65,2.41-.33,3.05.71Z"/>
            <path class="cls-16" d="m266.81,235.62c.63,1.01.32,2.35-.69,2.98-1.01.63-2.35.32-2.98-.69-.63-1.01-.32-2.35.69-2.98,1.01-.63,2.35-.32,2.98.69Z"/>
            <path class="cls-16" d="m189.53,223.85c.65,1.04.33,2.4-.71,3.05s-2.4.33-3.05-.71-.33-2.4.71-3.05c1.04-.65,2.4-.33,3.05.71Z"/>
            <path class="cls-16" d="m334.01,361.45c.48.78.25,1.8-.53,2.28-.78.48-1.8.25-2.28-.53s-.25-1.8.53-2.28c.78-.48,1.8-.25,2.28.53Z"/>
            <path class="cls-16" d="m291.03,376.06c.53.86.27,1.99-.58,2.52-.86.53-1.99.27-2.52-.58-.53-.86-.27-1.99.58-2.52.86-.53,1.99-.27,2.52.58Z"/>
            <path class="cls-16" d="m314.2,393.64c-1.12-1.8-.57-4.17,1.23-5.3,1.8-1.12,4.17-.57,5.3,1.23,1.12,1.8.57,4.17-1.23,5.3-1.8,1.12-4.17.57-5.3-1.23Z"/>
            <path class="cls-16" d="m331.05,257.2c.52.83.26,1.92-.57,2.44s-1.92.26-2.44-.57c-.52-.83-.26-1.92.57-2.44.83-.52,1.92-.26,2.44.57Z"/>
            <path class="cls-16" d="m335.18,285.98c.56.91.29,2.1-.62,2.66-.91.56-2.1.29-2.66-.62-.56-.91-.29-2.1.62-2.66.91-.56,2.1-.29,2.66.62Z"/>
            <path class="cls-16" d="m198.69,398.69c3.67,1.39,2.54,6.26-1.37,5.89-3.67-1.39-2.54-6.26,1.37-5.89Z"/>
            <path class="cls-16" d="m248.17,372.1c.64,1.02.33,2.37-.7,3.01-1.02.64-2.37.33-3.01-.7-.64-1.02-.33-2.37.7-3.01,1.02-.64,2.37-.33,3.01.7Z"/>
            <path class="cls-16" d="m243.96,323.6c.61.98.31,2.27-.67,2.88-.98.61-2.27.31-2.88-.67-.61-.98-.31-2.27.67-2.88.98-.61,2.27-.31,2.88.67Z"/>
            <path class="cls-16" d="m237.45,288.29c.68,1.08.35,2.51-.74,3.19-1.08.68-2.51.35-3.19-.74-.68-1.08-.35-2.51.74-3.19,1.08-.68,2.51-.35,3.19.74Z"/>
            <path class="cls-16" d="m247.3,220.12c.68,1.09.35,2.52-.74,3.2-1.09.68-2.52.35-3.2-.74-.68-1.09-.35-2.52.74-3.2,1.09-.68,2.52-.35,3.2.74Z"/>
          </g>
          <path class="cls-18" d="m191.91,164.69h0c-4.01,0-7.4,2.99-7.89,6.98l-4.81,38.95c-.59,4.74,3.11,8.93,7.89,8.93h.31c4.04,0,7.44-3.03,7.9-7.04l4.5-38.95c.55-4.72-3.15-8.86-7.9-8.86Z"/>
          <path class="cls-18" d="m175.35,246.2l-15.64,117.26c-.43,3.21.91,6.4,3.5,8.35.09.07.18.13.27.2,8.03,6.01,19.54.85,20.34-9.15,2.62-32.46,7.41-91.66,9.35-114.73.44-5.23-3.69-9.71-8.93-9.71h0c-4.49,0-8.29,3.33-8.89,7.78Z"/>
          <path class="cls-11" d="m220.21,182.98l-15.14,194.17c-.34,4.34,2.43,8.31,6.62,9.49.13.04.26.07.39.11,11.86,3.3,23.62-5.54,23.79-17.84.66-47.93,2.14-154.87,2.56-185.1.06-4.65-3.38-8.6-7.99-9.18h0c-5.17-.65-9.83,3.15-10.23,8.34Z"/>
          <path class="cls-20" d="m307.74,166.1h0c3.59-.76,7.08,1.68,7.59,5.32l26.31,187.34c.28,1.98-.39,3.97-1.81,5.38l-5.7,5.67c-3.77,3.75-10.21,1.47-10.77-3.82l-20.6-193.01c-.34-3.23,1.81-6.2,4.99-6.87Z"/>
          <g class="cls-25">
            <path class="cls-4" d="m209.76,161.64c-.94,19.39-2.23,38.76-3.65,58.11-.68,9.68-1.48,19.35-2.23,29.02l-2.43,29-2.63,28.98-1.39,14.49-.7,7.24-.74,7.24c-1.95,19.31-4.04,38.6-6.48,57.86.93-19.39,2.22-38.76,3.65-58.11l.53-7.26.57-7.25,1.14-14.51,2.44-29,2.63-28.98c.94-9.66,1.82-19.32,2.84-28.97,1.96-19.31,4.04-38.6,6.48-57.86Z"/>
          </g>
          <g class="cls-24">
            <path class="cls-4" d="m250.08,164.69c.76,20.43,1.15,40.85,1.42,61.28.17,10.21.21,20.43.3,30.64l.1,30.64-.1,30.64-.13,15.32-.07,7.66-.11,7.66c-.27,20.43-.66,40.85-1.42,61.28-.76-20.43-1.16-40.85-1.42-61.28l-.11-7.66-.07-7.66-.13-15.32-.1-30.64.1-30.64c.1-10.21.14-20.43.3-30.64.27-20.43.66-40.85,1.42-61.28Z"/>
          </g>
        </g>
        <g>
          <path class="cls-3" d="m315.23,146.2h0c-42.8,18.41-92.46,18.41-135.26,0h0c-2.74-1.18-4.48-3.68-4.48-6.42v-38.78h144.23v38.78c0,2.75-1.74,5.25-4.48,6.42Z"/>
          <path class="cls-12" d="m284.48,100.87c-.92.46-1.84.92-2.77,1.37-11.62,5.62-23.61,10.33-35.91,13.96-12.3,3.66-24.92,6.18-37.73,7.6-10.75,1.22-21.62,1.56-32.59,1.36v1.23c4.34.85,8.73,1.47,13.14,1.9,6.57.64,13.19.82,19.81.58,6.62-.25,13.23-.91,19.79-1.99,1.64-.27,3.27-.59,4.9-.89,1.62-.35,3.25-.67,4.87-1.04,3.23-.76,6.45-1.59,9.63-2.53,12.75-3.75,25.01-9.06,36.47-15.67,2.87-1.64,5.68-3.39,8.43-5.2.34-.22.67-.45,1-.67h-9.06Z"/>
          <path class="cls-12" d="m319.71,107.33c-9.91,6.17-19.95,11.91-30.32,16.9-11.62,5.62-23.61,10.33-35.91,13.96-12.3,3.66-24.92,6.18-37.73,7.6-11.07,1.26-22.25,1.59-33.54,1.34,1.66.68,3.33,1.34,5,1.97,3.01.49,6.05.88,9.09,1.18,6.57.64,13.19.82,19.81.58,6.62-.25,13.23-.91,19.79-1.99,1.64-.27,3.27-.59,4.9-.89,1.62-.35,3.25-.67,4.87-1.04,3.23-.76,6.45-1.59,9.63-2.53,12.75-3.75,25.01-9.06,36.47-15.67,2.87-1.64,5.68-3.39,8.43-5.2,2.76-1.81,5.46-3.71,8.1-5.68,3.95-2.95,7.77-6.07,11.4-9.38v-1.15Z"/>
          <path class="cls-12" d="m319.71,134.53v-2.83c-7.66,4.57-15.43,8.86-23.4,12.69-11.62,5.62-23.61,10.33-35.91,13.96-1.76.52-3.52,1.02-5.29,1.49,10.14-.44,20.24-1.76,30.17-3.97,4.58-2.13,9.06-4.46,13.43-6.97,2.87-1.64,5.68-3.39,8.43-5.2,2.76-1.81,5.46-3.71,8.1-5.68,1.51-1.13,3.01-2.29,4.48-3.48Z"/>
          <path class="cls-22" d="m278.33,101c-1.59.76-3.19,1.51-4.79,2.25-1.48.66-2.95,1.33-4.45,1.96-1.49.65-2.99,1.25-4.49,1.85-6,2.43-12.13,4.55-18.34,6.37-6.2,1.86-12.5,3.39-18.86,4.6-1.59.28-3.18.6-4.78.86l-2.4.38c-.8.13-1.6.26-2.4.35-3.21.44-6.43.82-9.66,1.13-10.83,1-21.76,1.07-32.68.39v.61c10.84,1.64,21.88,2.14,32.86,1.52,6.57-.34,13.11-1.13,19.6-2.23,6.49-1.12,12.9-2.67,19.22-4.5l2.36-.71,2.35-.76c1.57-.5,3.12-1.05,4.67-1.6,1.56-.54,3.09-1.14,4.63-1.71,1.53-.62,3.07-1.19,4.58-1.85,1.51-.65,3.02-1.29,4.52-1.99,1.5-.67,2.98-1.38,4.47-2.09.74-.35,1.48-.72,2.21-1.09.73-.37,1.47-.73,2.2-1.11,1.45-.77,2.91-1.54,4.34-2.34.17-.09.33-.19.49-.28h-5.66Z"/>
          <path class="cls-22" d="m319.71,103.13c-9.55,6.58-19.44,12.57-29.72,17.78-2.89,1.47-5.83,2.85-8.77,4.21-1.48.66-2.95,1.33-4.45,1.96-1.49.65-2.99,1.25-4.49,1.85-6,2.43-12.13,4.55-18.34,6.37-6.2,1.86-12.5,3.39-18.86,4.6-1.59.28-3.18.6-4.78.86l-2.4.38c-.8.13-1.6.26-2.4.35-3.21.44-6.43.82-9.66,1.13-12.92,1.19-25.96,1.07-38.98-.09,12.84,2.49,26.04,3.34,39.17,2.6,6.57-.34,13.11-1.13,19.6-2.23,6.49-1.12,12.9-2.67,19.22-4.5l2.36-.71,2.35-.76c1.57-.5,3.12-1.05,4.67-1.6,1.56-.54,3.09-1.14,4.63-1.71,1.53-.62,3.07-1.19,4.58-1.85,1.51-.65,3.02-1.29,4.52-1.99,1.5-.67,2.98-1.38,4.47-2.09.74-.35,1.48-.72,2.21-1.09.73-.37,1.47-.73,2.2-1.11,1.45-.77,2.91-1.54,4.34-2.34,10.11-5.59,19.7-12.1,28.54-19.46v-.56Z"/>
          <path class="cls-22" d="m319.71,127.9c-7.39,4.78-14.98,9.2-22.8,13.16-2.89,1.47-5.83,2.85-8.77,4.21-1.48.66-2.95,1.33-4.45,1.96-1.49.65-2.99,1.25-4.49,1.85-6,2.43-12.13,4.55-18.34,6.37-6.02,1.81-12.13,3.3-18.3,4.49,5.01.15,10.02.07,15.02-.21,1.4-.37,2.8-.76,4.2-1.17l2.36-.71,2.35-.76c1.57-.5,3.12-1.05,4.67-1.6,1.56-.54,3.09-1.14,4.63-1.71,1.53-.62,3.07-1.19,4.58-1.85,1.51-.65,3.02-1.29,4.52-1.99,1.5-.67,2.98-1.38,4.47-2.09.74-.35,1.48-.72,2.21-1.09.73-.37,1.47-.72,2.2-1.11,1.45-.77,2.91-1.54,4.34-2.34,7.53-4.16,14.76-8.84,21.62-13.99v-1.41Z"/>
          <path class="cls-13" d="m189.22,101l-3.2,47.67c6.43,2.47,13,4.54,19.66,6.2l4.95-53.87h-21.41Z"/>
          <ellipse class="cls-22" cx="247.59" cy="100.87" rx="72.11" ry="21.98"/>
          <path class="cls-15" d="m319.71,101c.12,1.66-.45,3.35-1.34,4.78-.9,1.44-2.1,2.67-3.39,3.77-1.29,1.1-2.69,2.04-4.14,2.9-1.45.86-2.94,1.64-4.46,2.35-6.11,2.79-12.56,4.7-19.07,6.15-6.51,1.47-13.12,2.44-19.76,3.1-3.32.33-6.64.55-9.97.72-3.33.16-6.66.22-9.99.24-3.33-.01-6.66-.08-9.99-.23-3.33-.16-6.65-.39-9.97-.72-3.32-.33-6.63-.73-9.92-1.24-1.65-.26-3.29-.53-4.93-.84-1.64-.31-3.27-.65-4.9-1.02-6.51-1.45-12.96-3.35-19.07-6.15-1.52-.71-3.02-1.49-4.46-2.35-1.45-.86-2.85-1.81-4.14-2.91-1.28-1.1-2.48-2.33-3.39-3.77-.89-1.43-1.46-3.12-1.34-4.78.12,1.66.84,3.18,1.84,4.43.99,1.27,2.24,2.31,3.57,3.23,2.67,1.82,5.64,3.18,8.69,4.31,3.04,1.15,6.17,2.08,9.34,2.86,3.17.78,6.36,1.47,9.58,2.02,12.89,2.21,26,3.07,39.09,3.09,13.09-.02,26.21-.88,39.1-3.09,3.22-.55,6.41-1.25,9.58-2.02,3.17-.78,6.3-1.71,9.34-2.86,3.05-1.13,6.02-2.49,8.69-4.31,1.32-.92,2.57-1.96,3.57-3.23,1.01-1.25,1.73-2.77,1.84-4.43Z"/>
          <g>
            <path class="cls-23" d="m231.09,93.87c2.67,0,4.93.88,5.81,2.12.25-.35.39-.73.39-1.13,0-1.79-2.78-3.24-6.21-3.24s-6.21,1.45-6.21,3.24c0,.4.14.78.39,1.13.88-1.23,3.15-2.12,5.81-2.12Z"/>
            <path class="cls-10" d="m231.09,98.1c2.67,0,4.93-.88,5.81-2.12-.88-1.23-3.15-2.12-5.81-2.12s-4.93.88-5.81,2.12c.88,1.23,3.15,2.12,5.81,2.12Z"/>
          </g>
          <g>
            <path class="cls-23" d="m266.67,93.87c2.67,0,4.93.88,5.81,2.12.25-.35.39-.73.39-1.13,0-1.79-2.78-3.24-6.21-3.24s-6.21,1.45-6.21,3.24c0,.4.14.78.39,1.13.88-1.23,3.15-2.12,5.81-2.12Z"/>
            <path class="cls-10" d="m266.67,98.1c2.67,0,4.93-.88,5.81-2.12-.88-1.23-3.15-2.12-5.81-2.12s-4.93.88-5.81,2.12c.88,1.23,3.15,2.12,5.81,2.12Z"/>
          </g>
          <g>
            <path class="cls-23" d="m249.27,103.79c2.67,0,4.93.88,5.81,2.12.25-.35.39-.73.39-1.13,0-1.79-2.78-3.24-6.21-3.24s-6.21,1.45-6.21,3.24c0,.4.14.78.39,1.13.88-1.23,3.15-2.12,5.81-2.12Z"/>
            <path class="cls-10" d="m249.27,108.02c2.67,0,4.93-.88,5.81-2.12-.88-1.23-3.15-2.12-5.81-2.12s-4.93.88-5.81,2.12c.88,1.23,3.15,2.12,5.81,2.12Z"/>
          </g>
        </g>
      </g>
    </g>
  </g>
</svg>