<?xml version="1.0" encoding="UTF-8"?>
<svg id="chill" xmlns="http://www.w3.org/2000/svg" width="500" height="500" viewBox="0 0 500 500">
  <defs>
    <style>
      .cls-1 {
        fill: #ffb309;
      }

      .cls-1, .cls-2, .cls-3, .cls-4 {
        stroke-width: 0px;
      }

      .cls-2 {
        fill: #ffa200;
      }

      .cls-3 {
        fill: #ffc818;
      }

      .cls-4 {
        fill: #42190f;
      }
    </style>
  </defs>
  <g>
    <circle class="cls-2" cx="250" cy="251.25" r="218.73"/>
    <circle class="cls-1" cx="250" cy="240.93" r="208.93"/>
    <circle class="cls-3" cx="250" cy="219.02" r="189"/>
  </g>
  <g>
    <path class="cls-4" d="m215.83,189.8c-6.47,19.45-24.25,33.6-43.81,38.79-31.6,8.54-67.56-6.96-81.06-37.16-2.9-6.6-4.76-13.7-4.88-20.9,1.09,1.43,2.06,2.87,3.05,4.27,2.92,3.9,6.27,8.03,9.62,11.47,33.33,34.22,81.23,33.61,117.08,3.52h0Z"/>
    <path class="cls-4" d="m277.13,194.39c37.81,27.62,85.65,24.98,116.58-11.39,3.11-3.65,6.2-8.02,8.83-12.09,3.27-5.29,2.84-5.92,2.74.88-.41,5.4-1.59,10.73-3.46,15.84-11.44,31.04-46.27,48.91-78.38,42.52-19.86-3.86-38.56-16.78-46.32-35.76h0Z"/>
  </g>
  <path class="cls-4" d="m317.83,315.65c-3.54,19-17.35,34.88-34.09,44.06-33.37,18.85-80.43,11.08-103.43-20.32-4.69-6.37-8.24-13.7-9.92-21.43,9.7,10.62,21.64,19.67,34.8,25.16,39.8,16.83,85.14,5.84,112.64-27.47h0Z"/>
  <g>
    <path class="cls-4" d="m178.58,114.48c-15.81.24-31.56,2.23-45.58,8.9-10.39,4.88-19.76,11.99-28.8,19.06-3.49,2.73-6.83,5.52-10.64,8.07.17-2.35.56-4.63,1.04-6.9,3.89-16.19,15.2-30.35,30.36-37.43,17.35-8.19,40.45-6.31,53.63,8.3h0Z"/>
    <path class="cls-4" d="m315.1,114.48c13.18-14.62,36.28-16.49,53.63-8.3,15.16,7.08,26.46,21.24,30.36,37.43.48,2.27.87,4.55,1.04,6.9-3.81-2.55-7.16-5.34-10.64-8.07-9.04-7.07-18.41-14.18-28.8-19.06-14.02-6.68-29.76-8.66-45.58-8.9h0Z"/>
  </g>
</svg>