<?xml version="1.0" encoding="UTF-8"?>
<svg id="timer" xmlns="http://www.w3.org/2000/svg" width="500" height="500" viewBox="0 0 500 500">
  <defs>
    <style>
      .cls-1 {
        stroke-width: 0px;
      }
    </style>
  </defs>
  <path class="cls-1" d="m250,468.9c-58.47,0-113.44-22.77-154.79-64.12-41.35-41.35-64.11-96.32-64.11-154.79s22.77-113.44,64.11-154.79C136.56,53.87,191.53,31.1,250,31.1s113.44,22.77,154.79,64.11c41.35,41.35,64.11,96.32,64.11,154.79s-22.77,113.44-64.11,154.79c-41.35,41.35-96.32,64.12-154.79,64.12Zm0-424.08c-113.13,0-205.17,92.04-205.17,205.17s92.04,205.17,205.17,205.17,205.17-92.04,205.17-205.17S363.13,44.83,250,44.83Z"/>
  <g>
    <path class="cls-1" d="m249.96,350.44c-16.84,0-33.68.02-50.52,0-19.18-.03-31.64-12.45-31.67-31.58-.03-16.59-.06-33.19.03-49.78.03-5.88,3.8-9.85,9-9.94,5.35-.09,9.1,3.91,9.34,10,.04,1,.01,2,.01,2.99,0,15.59-.01,31.19.02,46.78,0,1.73.01,3.54.46,5.19,1.32,4.9,5.56,8.01,11.33,8.02,34.68.07,69.35.09,104.03,0,7.46-.02,11.76-4.59,11.79-12.07.06-16.22.02-32.44.03-48.65,0-1.49,0-3.01.24-4.47.76-4.56,4.32-7.66,8.73-7.77,4.54-.11,8.31,3.02,9.16,7.71.22,1.22.23,2.48.24,3.72.01,16.09.03,32.19,0,48.28-.04,19.15-12.48,31.55-31.68,31.58-16.84.03-33.68,0-50.52,0Z"/>
    <path class="cls-1" d="m249.88,171.09c-12.11,10.89-23.97,21.56-35.82,32.23-15.85,14.27-31.71,28.53-47.54,42.83-2.48,2.24-5.1,4.1-8.64,3.63-3.78-.5-6.42-2.55-7.66-6.24-1.31-3.9-.09-7.16,2.8-9.8,7.92-7.23,15.92-14.38,23.9-21.55,21.69-19.52,43.39-39.04,65.08-58.57,6.04-5.44,9.92-5.43,15.94,0,28.73,25.87,57.48,51.72,86.22,77.59,1.02.92,2.06,1.82,3.03,2.79,3.91,3.93,4.17,9.23.68,13.06-3.4,3.73-8.59,4.11-12.75.54-6.15-5.28-12.09-10.8-18.11-16.23-21.41-19.28-42.81-38.57-64.22-57.85-.83-.74-1.7-1.43-2.9-2.43Z"/>
  </g>
</svg>